inDegrees=no
num_controls=7
num_derivatives=13
num_iterations=110
num_multipliers=7
num_parameters=0
num_slacks=7
num_states=26
objective=0.508512
objective_accelerations=0.040107
objective_balance=0.003093
objective_effort=0.030338
objective_height=0.322768
objective_ligament=0.112207
solver_duration=1403.232160
status=Solve_Succeeded
success=true
DataType=double
version=3
OpenSimVersion=4.5
endheader
time	/jointset/ground_pelvis/pelvis_tilt/value	/jointset/ground_pelvis/pelvis_tx/value	/jointset/ground_pelvis/pelvis_ty/value	/jointset/hip_l/hip_flexion_l/value	/jointset/hip_l/hip_adduction_l/value	/jointset/hip_l/hip_rotation_l/value	/jointset/back/lumbar_extension/value	/jointset/patellofemoral_l/patellar_flexion_l/value	/jointset/knee_l/knee_flexion_l/value	/jointset/knee_l/knee_adduction_l/value	/jointset/knee_l/knee_rotation_l/value	/jointset/ankle_l/ankle_angle_l/value	/jointset/subtalar_l/subtalar_angle_l/value	/jointset/ground_pelvis/pelvis_tilt/speed	/jointset/ground_pelvis/pelvis_tx/speed	/jointset/ground_pelvis/pelvis_ty/speed	/jointset/hip_l/hip_flexion_l/speed	/jointset/hip_l/hip_adduction_l/speed	/jointset/hip_l/hip_rotation_l/speed	/jointset/back/lumbar_extension/speed	/jointset/patellofemoral_l/patellar_flexion_l/speed	/jointset/knee_l/knee_flexion_l/speed	/jointset/knee_l/knee_adduction_l/speed	/jointset/knee_l/knee_rotation_l/speed	/jointset/ankle_l/ankle_angle_l/speed	/jointset/subtalar_l/subtalar_angle_l/speed	/forceset/tau_hip_flexion_l	/forceset/tau_hip_adduction_l	/forceset/tau_hip_rotation_l	/forceset/tau_knee_flexion_l	/forceset/tau_ankle_angle_l	/forceset/tau_subtalar_angle_l	/forceset/tau_lumbar_extension	lambda_cid13_p0	lambda_cid13_p1	lambda_cid13_p2	lambda_cid13_p3	lambda_cid13_p4	lambda_cid13_p5	lambda_cid14_p0	/jointset/ground_pelvis/pelvis_tilt/accel	/jointset/ground_pelvis/pelvis_tx/accel	/jointset/ground_pelvis/pelvis_ty/accel	/jointset/hip_l/hip_flexion_l/accel	/jointset/hip_l/hip_adduction_l/accel	/jointset/hip_l/hip_rotation_l/accel	/jointset/back/lumbar_extension/accel	/jointset/patellofemoral_l/patellar_flexion_l/accel	/jointset/knee_l/knee_flexion_l/accel	/jointset/knee_l/knee_adduction_l/accel	/jointset/knee_l/knee_rotation_l/accel	/jointset/ankle_l/ankle_angle_l/accel	/jointset/subtalar_l/subtalar_angle_l/accel	gamma_cid13_p0	gamma_cid13_p1	gamma_cid13_p2	gamma_cid13_p3	gamma_cid13_p4	gamma_cid13_p5	gamma_cid14_p0
1	-0.1535120430225276	-0.05868712889266399	0.7251656174229426	1.239792067263794	-0.3328546419765502	0.02524407310091578	-0.9599307369381221	1.221262141047859	1.221262141047987	-0.09120792317677101	-0.1744533350358007	0.218833155699286	0.03434173057491947	0.1125869303565354	0.02045571401947132	0.07211235737126913	-0.3108807599725455	0.001125581612095862	-0.07657903952648218	0.001071196545081376	-0.1933559453259326	-0.1933559453259381	0.005028505510250162	0.004434998299249573	-0.005488573556077787	0.000510496549466169	-0.4051926921518426	0.07763178600651241	-0.004021605174554881	-0.2813483206130081	0.02184640550396265	0.005876446767651646	0.4398109167650517	-44.1406666013387	7.02730055887456	-3.688630669382836	13.93573987047372	-790.2386252054899	-29.00219235980768	-0.758501608051528	1.170269146385726	0.06465688634188839	1.323260712757633	-4.819764338827551	0.1051476987534675	-1.785667903368728	0.1922317642420528	-4.473458137099267	-4.473458137099724	0.2224582356835441	0.1235263312913173	-1.086164381233076	-0.2681461105983113	-1.261521285120503e-08	-1.025882169210319e-08	7.339054868248568e-08	6.245177988549148e-09	-2.612173609219181e-08	6.414388092061036e-08	-1.619079735266949e-08
1.01	-0.1523287431760907	-0.05847929949968947	0.72595250698652	1.236444220884919	-0.3328374021646689	0.02438868936606647	-0.9599086841853427	1.219105658482748	1.219105658482851	-0.09114494012532733	-0.1744020690211229	0.2187241137530531	0.03433439833217283	0.1240122320352706	0.02111623302073019	0.08523772718340492	-0.3585774570614767	0.002333955184453798	-0.09447660502075174	0.003454752020227011	-0.2379001935304953	-0.2379001935305001	0.007572484465391778	0.005817721977689548	-0.01632505991619926	-0.001964888618527298	-0.4044968613664289	0.07791067447297585	-0.004073051178439428	-0.2807577038760445	0.02170585217769915	0.005944391438789933	0.4396197918352199	-44.14439652845473	6.988295900403414	-3.670819175266387	13.8087959196158	-789.7246480395291	-28.99339983590743	-0.7881278654821783	1.119537767242007	0.06766104963920744	1.302995151838001	-4.727966131297127	0.1304102953096444	-1.788653978411486	0.2787271386541699	-4.438847794502016	-4.438847794501624	0.2710147698264384	0.1455937901233013	-1.083178026774041	-0.2354340058104975	-1.657544315727069e-08	-2.09755959258521e-08	9.469291441222533e-08	6.873426845722682e-09	-2.867155939668554e-08	7.049313754833753e-08	-2.116372876527293e-08
1.02	-0.1510330148951376	-0.05826468258817798	0.7268698142554978	1.232622738787678	-0.3328077329952931	0.02335495935506508	-0.959859333937826	1.216504945509118	1.216504945509201	-0.09105638787547558	-0.1743369860888443	0.2185065494905449	0.03430267238056475	0.1350726172589812	0.02181321772686525	0.09819589845136341	-0.4056079036452613	0.003611453110120384	-0.1122482947532376	0.006530695475494907	-0.2822020270297484	-0.2822020270297502	0.01014234519641271	0.007198381816242805	-0.02719303681121627	-0.004368245222949456	-0.4038010305810429	0.07818956293941851	-0.004124497182423614	-0.2801670871390859	0.02156529885143358	0.00601233610990309	0.439428666905367	-44.15981893734738	6.951337174806504	-3.653332456001992	13.72915129070558	-789.3682126913998	-28.97532761250991	-0.8245416695205134	1.097285855380872	0.07195002731708409	1.289821003922163	-4.686514237798209	0.1189725694151842	-1.76049275101199	0.3307093602662832	-4.424975196037358	-4.424975196037347	0.2276345908593891	0.1231135633139391	-1.092462488212262	-0.2537403978840992	-2.146474720289499e-08	-3.120919560844603e-08	1.116728463301531e-07	1.059723134740068e-08	-3.490525967409322e-08	7.322879908849984e-08	-2.487804143154384e-08
1.03	-0.1496283763485569	-0.05804281272605315	0.727915909914767	1.228333944286049	-0.3327649359856137	0.02214418799289219	-0.9597753091383194	1.213462325671357	1.21346232567142	-0.0909420937146192	-0.1742581211965868	0.2181802557718522	0.03424732572362403	0.1458056894316719	0.02257693217599074	0.1109995434081685	-0.4520723178133086	0.004960977263200047	-0.1298847540872113	0.01043711789930625	-0.3262920793919473	-0.3262920793919479	0.01271713116834767	0.008572365033590988	-0.03806028093196213	-0.006682845207288815	-0.4037271969287178	0.07866505558153099	-0.00419576723242459	-0.2791698303235685	0.02122247080798881	0.006145724704270596	0.4399595206742007	-44.24886498730773	6.890683833685812	-3.622743608405679	13.51217445990153	-789.3216128639699	-28.95165471287253	-0.8681288238333278	1.053905358420183	0.08101166853437844	1.272074469070988	-4.614606371410316	0.1448854538641789	-1.762064693403841	0.4450367042224099	-4.396535348420613	-4.396535348420427	0.2724828885717293	0.1442336900010317	-1.083043333925786	-0.217592058452927	-2.636353159280051e-08	-4.143786493847715e-08	1.286086717806134e-07	1.435262315157365e-08	-4.117655053285718e-08	7.592758720940126e-08	-2.857951104938279e-08
1.04	-0.1481178895882043	-0.05781281981647212	0.7290893296691063	1.223582865369719	-0.3327082551112775	0.02075768360360266	-0.9596473345104093	1.209979702291552	1.209979702291597	-0.09080203523641904	-0.1741655778743336	0.2177454520199684	0.03416937861489167	0.1562422600126361	0.02343782721810653	0.1236607174653945	-0.4980647865854513	0.006388226040672513	-0.1473949001737355	0.01532066115446284	-0.3702027354385249	-0.3702027354385242	0.01529520866873076	0.009934067813165973	-0.04889504344951062	-0.008888335581393748	-0.4036533632764089	0.07914054822363033	-0.004267037282502047	-0.2781725735080547	0.02087964276454213	0.006279113298622179	0.4404903744430225	-44.34973159161586	6.831978322201788	-3.592326224334114	13.34188813716218	-789.434507209405	-28.92003806787217	-0.9193171926199745	1.037985537035632	0.09138614591509255	1.261326824006335	-4.592125158617254	0.1345174942937375	-1.735230101522074	0.5261335265352959	-4.389095932913107	-4.389095932913079	0.2282928965489999	0.1206574757592769	-1.085966167572875	-0.2319184758372597	-3.008896390564189e-08	-5.136529916551916e-08	1.431547142559832e-07	1.619132206870643e-08	-4.610214005081449e-08	7.676870143553561e-08	-3.180549831300023e-08
